

<svg width="69" height="80" viewBox="0 0 69 80" fill="none" xmlns="http://www.w3.org/2000/svg">
<path fill-rule="evenodd" clip-rule="evenodd" d="M38.4761 9.08555C44.0248 10.3544 46.4434 14.124 47.4598 19.4958C49.7842 16.7977 52.734 15.3318 56.7556 15.3318C66.6132 15.3318 70.5802 34.2941 66.6132 51.5061C62.9166 67.5445 55.5234 79.0443 46.898 79.0443C44.5302 79.0443 42.5936 78.0288 41.0671 76.2548C39.0927 78.5677 36.7203 79.8818 33.9599 79.8818C31.3508 79.8818 29.0854 78.7149 27.1777 76.6339C25.641 78.4578 23.6776 79.4956 21.2744 79.4956C12.6489 79.4956 5.615 69.5512 1.55907 51.9574C-2.49669 34.3637 1.55907 15.7831 11.4168 15.7831C15.1755 15.7831 18.0014 17.056 20.2534 19.423C21.5281 12.7876 24.9657 8.61641 33.8497 8.61641L33.9241 8.61651C35.9052 5.64259 38.688 2.69729 42.5771 0.0727567C43.6108 -0.336348 45.1591 1.10407 44.932 1.3089C42.5523 3.45574 40.1448 5.87711 38.4761 9.08555ZM29.9841 45.6649C29.9841 46.1444 30.3713 46.533 30.8491 46.533H33.9984C34.4496 46.533 35.0321 46.5089 35.7448 46.4604C36.4568 46.412 37.1346 46.2591 37.7781 46.0004C38.4208 45.7424 38.9771 45.315 39.4463 44.7171C39.9156 44.1202 40.1502 43.2887 40.1502 42.2234C40.1502 41.1581 39.9066 40.3432 39.4203 39.778C38.9332 39.2135 38.3516 38.802 37.6738 38.5432C36.9961 38.2851 36.2833 38.1316 35.5363 38.0832C34.7885 38.0348 34.1548 38.0105 33.6334 38.0105H30.8491C30.3713 38.0105 29.9841 38.3991 29.9841 38.8787V45.6649ZM20.5479 31.0574C20.5479 30.4581 21.071 29.9723 21.7162 29.9723H33.1643C34.9368 29.9723 36.4569 30.0373 37.726 30.166C38.9943 30.2953 40.0891 30.4732 41.0104 30.6986C41.9309 30.9249 42.7047 31.1995 43.3304 31.5218C43.956 31.8449 44.5294 32.1997 45.0508 32.5872C46.5797 33.7493 47.7178 35.1619 48.4656 36.8242C49.2125 38.4872 49.5864 40.238 49.5864 42.0782C49.5864 42.9824 49.4904 43.894 49.2997 44.8141C49.1083 45.7342 48.8305 46.6058 48.4656 47.429C48.1006 48.2521 47.6746 49.011 47.1883 49.7049C46.7011 50.3995 46.1456 50.9881 45.52 51.4724C44.8594 51.9891 44.1816 52.4408 43.4868 52.8282C42.7911 53.2155 42.0091 53.5387 41.1407 53.7966C40.2716 54.0554 39.281 54.2491 38.1691 54.3778C37.0564 54.5071 35.753 54.5714 34.259 54.5714H31.1525C30.5072 54.5714 29.9841 55.0574 29.9841 55.6567V64.7206C29.9841 65.3198 29.461 65.8057 28.8157 65.8057H21.7162C21.071 65.8057 20.5479 65.3198 20.5479 64.7206V31.0574Z" fill="url(#paint0_linear)"/>
<defs>
<linearGradient id="paint0_linear" x1="0" y1="0" x2="0" y2="79.8818" gradientUnits="userSpaceOnUse">
<stop stop-color="#FF5B2C"/>
<stop offset="1" stop-color="#FF841A"/>
</linearGradient>
</defs>
</svg>
